<svg width="283px" height="109px" viewBox="0 0 283 109" version="1.1" xmlns="http://www.w3.org/2000/svg" xmlns:xlink="http://www.w3.org/1999/xlink">
    <title>Artboard</title>
    <g id="Artboard" stroke="none" stroke-width="1" fill="none" fill-rule="evenodd">
        <g id="tapio_logo_white_sRGB" transform="translate(-0.060000, -0.000000)" fill="#FFFFFF">
            <path d="M265.333,66.827 C265.031,70.857 263.015,72.871 259.289,72.871 C255.259,72.568 253.246,70.554 253.246,66.827 L253.246,42.651 C253.548,38.623 255.562,36.607 259.289,36.607 C263.317,36.91 265.333,38.926 265.333,42.651 L265.333,66.827 Z M281.198,33.585 C278.176,27.542 272.888,24.52 265.333,24.52 L253.246,24.52 C249.718,24.822 246.697,25.578 244.18,26.787 C238.136,29.808 235.114,35.097 235.114,42.651 L235.114,66.827 C235.416,70.354 236.172,73.376 237.381,75.892 C240.402,81.936 245.691,84.959 253.246,84.959 L265.333,84.959 C268.858,84.757 271.88,84.001 274.399,82.692 C280.443,79.669 283.465,74.381 283.465,66.827 L283.465,42.651 C283.162,39.126 282.407,36.105 281.198,33.585 L281.198,33.585 Z" id="Fill-5"></path>
            <path d="M214.234,24.52 L183.587,24.52 L183.587,36.607 L196.103,36.607 L196.103,72.871 L182.704,72.871 L182.704,84.959 L227.633,84.959 L227.633,72.871 L214.234,72.871 L214.234,24.52 Z M197.614,15.109 L212.723,15.109 L212.723,2.84217094e-14 L197.614,2.84217094e-14 L197.614,15.109 Z" id="Fill-8"></path>
            <path d="M152.794,66.827 C152.492,70.857 150.476,72.871 146.75,72.871 L140.706,72.871 L140.706,42.651 C141.009,38.623 143.021,36.607 146.75,36.607 C150.778,36.91 152.794,38.926 152.794,42.651 L152.794,66.827 Z M168.659,33.585 C165.637,27.542 160.349,24.52 152.794,24.52 L149.771,24.52 C143.728,24.924 140.706,27.946 140.706,33.585 L134.663,24.52 L122.575,24.52 L122.575,109.133 L140.706,109.133 L140.706,84.959 L152.794,84.959 C160.349,84.959 165.637,81.936 168.659,75.892 C169.868,73.376 170.623,70.354 170.925,66.827 L170.925,42.651 C170.623,39.126 169.868,36.105 168.659,33.585 L168.659,33.585 Z" id="Fill-4"></path>
            <path d="M90.34,67.008 C90.032,71.119 87.975,73.172 84.175,73.172 C80.065,72.865 78.011,70.81 78.011,67.008 L78.011,63.925 C78.319,59.818 80.373,57.761 84.175,57.761 L90.34,57.761 L90.34,67.008 Z M108.899,84.959 L108.899,42.651 C108.597,39.126 107.842,36.105 106.633,33.585 C103.611,27.542 98.322,24.52 90.768,24.52 L63.571,24.52 L63.571,36.607 L84.724,36.607 C88.449,36.607 90.466,38.623 90.768,42.651 L90.768,48.695 L78.68,48.695 C71.126,48.695 65.837,51.717 62.815,57.761 C61.606,60.28 60.851,63.302 60.549,66.827 C60.851,70.354 61.606,73.376 62.815,75.892 C65.837,81.936 71.126,84.959 78.68,84.959 L81.702,84.959 C87.342,84.959 90.364,81.936 90.768,75.892 L96.811,84.959 L108.899,84.959 L108.899,84.959 Z" id="Fill-6"></path>
            <path d="M47.923,24.52 L26.77,24.52 L26.77,12.433 L8.638,12.433 L8.638,24.52 L0,24.52 L0,36.607 L8.638,36.607 L8.638,66.827 C8.638,74.381 11.66,79.669 17.704,82.692 C20.22,83.901 23.242,84.656 26.77,84.959 L47.923,84.959 L47.923,72.871 L32.813,72.871 C29.085,72.871 27.072,70.857 26.77,66.827 L26.77,36.607 L47.923,36.607 L47.923,24.52" id="Fill-1"></path>
        </g>
    </g>
</svg>